<?xml version="1.0" encoding="UTF-8"?>
<svg id="Layer_2" data-name="Layer 2" xmlns="http://www.w3.org/2000/svg" viewBox="0 0 950 950">
  <g id="Layer_1-2" data-name="Layer 1">
    <g>
      <path d="M696.86,717.34l-138.29,221.97c-2.25,3.61-9.47,4.02-12.23,1.29l-63.75-63.09c-1.4-1.39-3.69-3.05-5.13-3.12s-3.86,1.61-5.23,2.94l-62.66,61.27c-2.92,2.86-10.64,6.4-13.82,1.4l-233.24-367.28-.99-15.99.07-322.45c0-15.56,5.28-27.19,13.13-39.63l85.03-134.85c17.22-30.24,48.43-50.99,83.33-53.77l431.52.04c9.09,0,13.67,6.9,13.6,15.01-.06,7.05-4.16,14.74-12.68,14.74l-435.14.07c-26.2,3-45.13,18.5-58.74,40.01l-82.84,130.89c-8.5,13.43-12.99,28.43-4.73,43.41,5.13,9.31,15.62,15.72,27.12,15.72h556.49s10.38,1.32,10.38,1.32l-.02,304.52-91.18,145.57ZM481.58,810.18l73.78,72.3c.88.87,3.03,1.73,4.01,1.77s2.62-2.37,2.62-3.63l.08-436.82,197.22-.22-.02-146.3-566.26-.03.03,146.5,198.44-.05-.03,367.01.59,69.32c.01,1.39.56,3.7,1.53,4.02s3.72-.39,4.48-1.13l71.22-69.62c2.64-2.58,8.13-7.21,12.31-3.11Z"/>
      <path d="M774.33,210.11c5.05.07,7.28,3.72,6.84,7.39-.47,3.95-3.92,5.84-8.15,5.96l-42.84,1.22-136.1,3.18-71.25,1.01-280.62.19c-6.96,0-11.88-5.67-11.86-11.35.03-6.61,4.21-10.87,11.37-12.51l263.97.45,173.39,2.91,52.34,1,42.91.56Z"/>
      <path d="M744.52,158.63l-38.51,1.04-52,.98-54.97.94-46.2,1.02-270.41.14c-6.65,0-11.12-6.08-11.03-11.23s4.23-11.64,10.77-11.63l275.66.41,60.18,1.05,134.91,2.72,15.14.6c4.04.16,7.39,1.86,7.74,5.88.3,3.53-2.6,7.2-6.83,7.33l-24.44.76Z"/>
      <path d="M768.57,81.17c4.53.1,6.59,3.91,6.21,7.23-.47,4.11-3.65,5.85-7.8,5.97l-88.96,2.39-101.17,2.04-251.53.31c-6.7,0-10.58-6.6-10.55-11.57s4.15-11.11,10.84-11.1l210.34.19,165.14,3.03,41.48.96,26.01.56Z"/>
    </g>
  </g>
</svg>